<svg width="1144" height="1144" viewBox="0 0 1144 1144" fill="none" xmlns="http://www.w3.org/2000/svg">
<g filter="url(#filter0_ddi_30_3)">
<rect x="60" y="60" width="1024" height="1024" rx="180" fill="#F7F6F2"/>
</g>
<g filter="url(#filter1_ii_30_3)">
<rect x="145" y="154" width="853" height="836" rx="160" fill="#F7F6F2"/>
</g>
<g filter="url(#filter2_d_30_3)">
<path d="M411.017 532.402C397.414 524.77 397.394 505.196 410.983 497.537L554.399 416.702C566.718 409.759 581.787 409.836 594.034 416.904L733.918 497.638C747.27 505.344 747.251 524.622 733.884 532.302L593.966 612.687C581.754 619.703 566.751 619.779 554.468 612.887L411.017 532.402Z" fill="#C47B5A"/>
</g>
<g filter="url(#filter3_d_30_3)">
<path d="M443 583C444.377 583 445.69 583.279 446.884 583.782C448.096 583.992 449.282 584.407 450.387 585.027L553.665 642.973C565.948 649.864 580.951 649.788 593.163 642.771L693.449 585.155C696.849 583.202 701.032 583.206 704.428 585.166L733.115 601.724C740.5 605.986 743.792 613.788 743 621.21V714.863C743.794 722.299 740.488 730.117 733.081 734.372L593.163 814.756C580.951 821.772 565.948 821.848 553.665 814.957L410.214 734.472C396.611 726.839 396.592 707.265 410.18 699.606L422.746 692.523C428.83 689.094 436.262 689.087 442.353 692.504L553.665 754.957C565.948 761.848 580.951 761.772 593.163 754.756L692 697.974V659.988L593.163 716.771C580.951 723.788 565.948 723.864 553.665 716.973L410.214 636.487C403.196 632.55 399.793 625.434 400.01 618.415C400.004 618.277 400 618.139 400 618V593C400 587.477 404.477 583 410 583H443Z" fill="url(#paint0_linear_30_3)"/>
</g>
<defs>
<filter id="filter0_ddi_30_3" x="0" y="0" width="1144" height="1144" filterUnits="userSpaceOnUse" color-interpolation-filters="sRGB">
<feFlood flood-opacity="0" result="BackgroundImageFix"/>
<feColorMatrix in="SourceAlpha" type="matrix" values="0 0 0 0 0 0 0 0 0 0 0 0 0 0 0 0 0 0 127 0" result="hardAlpha"/>
<feOffset dx="20" dy="20"/>
<feGaussianBlur stdDeviation="20"/>
<feComposite in2="hardAlpha" operator="out"/>
<feColorMatrix type="matrix" values="0 0 0 0 0.890196 0 0 0 0 0.901961 0 0 0 0 0.870588 0 0 0 1 0"/>
<feBlend mode="normal" in2="BackgroundImageFix" result="effect1_dropShadow_30_3"/>
<feColorMatrix in="SourceAlpha" type="matrix" values="0 0 0 0 0 0 0 0 0 0 0 0 0 0 0 0 0 0 127 0" result="hardAlpha"/>
<feOffset dx="-20" dy="-20"/>
<feGaussianBlur stdDeviation="20"/>
<feComposite in2="hardAlpha" operator="out"/>
<feColorMatrix type="matrix" values="0 0 0 0 1 0 0 0 0 1 0 0 0 0 1 0 0 0 1 0"/>
<feBlend mode="normal" in2="effect1_dropShadow_30_3" result="effect2_dropShadow_30_3"/>
<feBlend mode="normal" in="SourceGraphic" in2="effect2_dropShadow_30_3" result="shape"/>
<feColorMatrix in="SourceAlpha" type="matrix" values="0 0 0 0 0 0 0 0 0 0 0 0 0 0 0 0 0 0 127 0" result="hardAlpha"/>
<feOffset dy="4"/>
<feGaussianBlur stdDeviation="4"/>
<feComposite in2="hardAlpha" operator="arithmetic" k2="-1" k3="1"/>
<feColorMatrix type="matrix" values="0 0 0 0 1 0 0 0 0 1 0 0 0 0 1 0 0 0 0.5 0"/>
<feBlend mode="normal" in2="shape" result="effect3_innerShadow_30_3"/>
</filter>
<filter id="filter1_ii_30_3" x="135" y="144" width="873" height="856" filterUnits="userSpaceOnUse" color-interpolation-filters="sRGB">
<feFlood flood-opacity="0" result="BackgroundImageFix"/>
<feBlend mode="normal" in="SourceGraphic" in2="BackgroundImageFix" result="shape"/>
<feColorMatrix in="SourceAlpha" type="matrix" values="0 0 0 0 0 0 0 0 0 0 0 0 0 0 0 0 0 0 127 0" result="hardAlpha"/>
<feOffset dx="10" dy="10"/>
<feGaussianBlur stdDeviation="15"/>
<feComposite in2="hardAlpha" operator="arithmetic" k2="-1" k3="1"/>
<feColorMatrix type="matrix" values="0 0 0 0 0.757532 0 0 0 0 0.764423 0 0 0 0 0.746047 0 0 0 1 0"/>
<feBlend mode="normal" in2="shape" result="effect1_innerShadow_30_3"/>
<feColorMatrix in="SourceAlpha" type="matrix" values="0 0 0 0 0 0 0 0 0 0 0 0 0 0 0 0 0 0 127 0" result="hardAlpha"/>
<feOffset dx="-10" dy="-10"/>
<feGaussianBlur stdDeviation="15"/>
<feComposite in2="hardAlpha" operator="arithmetic" k2="-1" k3="1"/>
<feColorMatrix type="matrix" values="0 0 0 0 1 0 0 0 0 1 0 0 0 0 1 0 0 0 1 0"/>
<feBlend mode="normal" in2="effect1_innerShadow_30_3" result="effect2_innerShadow_30_3"/>
</filter>
<filter id="filter2_d_30_3" x="390.803" y="407.548" width="363.118" height="226.455" filterUnits="userSpaceOnUse" color-interpolation-filters="sRGB">
<feFlood flood-opacity="0" result="BackgroundImageFix"/>
<feColorMatrix in="SourceAlpha" type="matrix" values="0 0 0 0 0 0 0 0 0 0 0 0 0 0 0 0 0 0 127 0" result="hardAlpha"/>
<feOffset dy="6"/>
<feGaussianBlur stdDeviation="5"/>
<feComposite in2="hardAlpha" operator="out"/>
<feColorMatrix type="matrix" values="0 0 0 0 0 0 0 0 0 0 0 0 0 0 0 0 0 0 0.4 0"/>
<feBlend mode="normal" in2="BackgroundImageFix" result="effect1_dropShadow_30_3"/>
<feBlend mode="normal" in="SourceGraphic" in2="effect1_dropShadow_30_3" result="shape"/>
</filter>
<filter id="filter3_d_30_3" x="390" y="579" width="363.115" height="257.072" filterUnits="userSpaceOnUse" color-interpolation-filters="sRGB">
<feFlood flood-opacity="0" result="BackgroundImageFix"/>
<feColorMatrix in="SourceAlpha" type="matrix" values="0 0 0 0 0 0 0 0 0 0 0 0 0 0 0 0 0 0 127 0" result="hardAlpha"/>
<feOffset dy="6"/>
<feGaussianBlur stdDeviation="5"/>
<feComposite in2="hardAlpha" operator="out"/>
<feColorMatrix type="matrix" values="0 0 0 0 0 0 0 0 0 0 0 0 0 0 0 0 0 0 0.4 0"/>
<feBlend mode="normal" in2="BackgroundImageFix" result="effect1_dropShadow_30_3"/>
<feBlend mode="normal" in="SourceGraphic" in2="effect1_dropShadow_30_3" result="shape"/>
</filter>
<linearGradient id="paint0_linear_30_3" x1="571.558" y1="583" x2="571.558" y2="820.072" gradientUnits="userSpaceOnUse">
<stop offset="0.134615" stop-color="#849685"/>
<stop offset="0.663462" stop-color="#5B6F5E"/>
</linearGradient>
</defs>
</svg>
