<svg width="953" height="721" viewBox="0 0 953 721" fill="none" xmlns="http://www.w3.org/2000/svg">
<g clip-path="url(#clip0_30_2)">
<path d="M315.017 209.402C301.414 201.77 301.394 182.196 314.983 174.537L458.399 93.7024C470.718 86.7592 485.787 86.836 498.034 93.9045L637.918 174.638C651.27 182.344 651.251 201.622 637.884 209.302L497.966 289.687C485.754 296.703 470.751 296.779 458.468 289.887L315.017 209.402Z" fill="#C47B5A"/>
<path d="M347 260C348.377 260 349.69 260.279 350.884 260.782C352.096 260.992 353.282 261.407 354.387 262.027L457.665 319.973C469.948 326.864 484.951 326.788 497.163 319.771L597.449 262.155C600.849 260.202 605.032 260.206 608.428 262.166L637.115 278.724C644.5 282.986 647.792 290.788 647 298.21V391.863C647.794 399.299 644.488 407.117 637.081 411.372L497.163 491.756C484.951 498.772 469.948 498.848 457.665 491.957L314.214 411.472C300.611 403.839 300.592 384.265 314.18 376.606L326.746 369.523C332.83 366.094 340.262 366.087 346.353 369.504L457.665 431.957C469.948 438.848 484.951 438.772 497.163 431.756L596 374.974V336.988L497.163 393.771C484.951 400.788 469.948 400.864 457.665 393.973L314.214 313.487C307.196 309.55 303.793 302.434 304.01 295.415C304.004 295.277 304 295.139 304 295V270C304 264.477 308.477 260 314 260H347Z" fill="url(#paint0_linear_30_2)"/>
<path d="M58.8 720.8C54.8 720.8 50.5 720.5 45.9 719.9C41.3 719.3 36.8 718.6 32.4 717.8C28.2 716.8 24.3 715.8 20.7 714.8C17.1 713.6 14.3 712.4 12.3 711.2C8.5 709 5.5 705.8 3.3 701.6C1.1 697.4 0 693.3 0 689.3C0 685.5 0.9 682.6 2.7 680.6C4.5 678.4 6.5 677.3 8.7 677.3C10.5 677.3 14.5 679.8 20.7 684.8C26.5 689.8 32.3 693.5 38.1 695.9C44.1 698.3 51.5 699.5 60.3 699.5C69.3 699.5 76.5 697.2 81.9 692.6C87.3 688 90 681.4 90 672.8C90 668.6 89.2 665 87.6 662C86.2 659 83.8 656.2 80.4 653.6C77 651 72.6 648.3 67.2 645.5C62 642.7 55.5 639.5 47.7 635.9C41.5 632.9 35.7 629.9 30.3 626.9C24.9 623.7 20.1 620.1 15.9 616.1C11.9 611.9 8.7 607.1 6.3 601.7C4.1 596.1 3 589.5 3 581.9C3 568.3 8.4 557.3 19.2 548.9C30 540.3 45.7 536 66.3 536C78.9 536 89.4 537.8 97.8 541.4C101.8 543.2 105.1 546.2 107.7 550.4C110.3 554.4 111.6 558.1 111.6 561.5C111.6 569.9 108.8 574.1 103.2 574.1C101.8 574.1 96.6 571.1 87.6 565.1C78.4 559.1 69.3 556.1 60.3 556.1C51.3 556.1 44 558.2 38.4 562.4C32.8 566.6 30 572.5 30 580.1C30 583.9 30.6 587.2 31.8 590C33.2 592.8 35.4 595.5 38.4 598.1C41.6 600.7 45.8 603.4 51 606.2C56.4 609 63.1 612.2 71.1 615.8C77.5 618.6 83.5 621.6 89.1 624.8C94.9 628 100 631.7 104.4 635.9C108.8 640.1 112.3 645.1 114.9 650.9C117.5 656.5 118.8 663.2 118.8 671C118.8 674.6 118.4 678.1 117.6 681.5C116.8 684.7 115.7 687.9 114.3 691.1C109.3 701.3 101.6 708.8 91.2 713.6C81 718.4 70.5 720.8 59.7 720.8H58.8Z" fill="black"/>
<path d="M280.263 553.1C280.263 561.1 277.763 565.1 272.763 565.1C270.563 565.1 266.963 564.4 261.963 563C256.963 561.6 251.763 560.9 246.363 560.9C234.763 560.9 227.963 565.2 225.963 573.8C224.363 581.4 223.563 602.7 223.563 637.7L222.963 662.9V675.8C222.963 681 223.263 684.9 223.863 687.5C224.663 689.9 225.763 693 227.163 696.8C228.363 700.4 228.963 703.3 228.963 705.5C228.963 709.9 227.063 713.3 223.263 715.7C219.663 717.9 214.663 719 208.263 719H204.963C200.363 719 196.163 717.9 192.363 715.7C188.763 713.3 186.963 710.4 186.963 707C186.963 703.2 187.463 700.1 188.463 697.7L190.563 692.6C191.363 691.2 192.363 688.4 193.563 684.2C194.563 680.2 195.063 673.3 195.063 663.5V659.9C195.263 658.5 195.363 657.3 195.363 656.3C195.363 655.1 195.363 653.8 195.363 652.4V645.2L195.963 616.1C195.963 592.1 195.163 577.2 193.563 571.4C191.763 564.6 186.463 561.2 177.663 561.2C172.663 561.2 166.663 562.4 159.663 564.8C152.463 567 148.163 568.1 146.763 568.1C142.563 568.1 140.463 563.7 140.463 554.9C140.463 546.1 144.263 541.2 151.863 540.2C162.063 538.4 186.763 537.5 225.963 537.5H261.663C268.463 537.5 273.263 538.8 276.063 541.4C278.863 544 280.263 547.9 280.263 553.1Z" fill="black"/>
<path d="M444.893 697.1V699.5C444.893 705.9 442.893 710.3 438.893 712.7C434.893 714.9 430.093 716 424.493 716C421.893 716 419.893 715.9 418.493 715.7C417.093 715.3 415.893 714.4 414.893 713C413.893 711.6 412.893 709.4 411.893 706.4C411.093 703.4 409.993 699.2 408.593 693.8C407.193 688 405.693 683.2 404.093 679.4C402.493 675.6 400.493 672.6 398.093 670.4C395.893 668 392.993 666.3 389.393 665.3C385.993 664.3 381.493 663.8 375.893 663.8C365.293 663.8 357.093 664.2 351.293 665C345.493 665.8 341.093 667.3 338.093 669.5C335.093 671.5 332.893 674.4 331.493 678.2C330.093 681.8 328.493 686.5 326.693 692.3C325.293 696.5 324.293 700.7 323.693 704.9C323.293 708.9 322.493 711.8 321.293 713.6C320.293 715.2 317.493 716 312.893 716C308.293 716 304.593 714.1 301.793 710.3C299.193 706.5 297.893 702.3 297.893 697.7C297.893 692.9 299.493 688.3 302.693 683.9C304.293 681.7 305.593 679.6 306.593 677.6C307.793 675.4 308.793 673.4 309.593 671.6C310.393 669.8 312.293 664.4 315.293 655.4C318.293 646.2 322.693 633.4 328.493 617C334.093 600.6 338.693 587.4 342.293 577.4C346.093 567.2 348.993 560 350.993 555.8C354.793 547.8 358.093 542.7 360.893 540.5C363.693 538.3 367.193 537.2 371.393 537.2C375.593 537.2 379.393 538.7 382.793 541.7C386.393 544.7 390.193 550.5 394.193 559.1C394.193 559.1 407.593 596.9 434.393 672.5C435.793 676.5 437.893 680.8 440.693 685.4C443.493 690 444.893 693.9 444.893 697.1ZM373.193 645.5C386.393 645.5 392.993 644.3 392.993 641.9V641C392.993 640.6 392.793 639.8 392.393 638.6C392.193 637.4 391.893 635.7 391.493 633.5L389.393 626C389.393 625.8 389.193 625.1 388.793 623.9C388.593 623.5 387.393 618.3 385.193 608.3C382.793 598.7 379.793 589.6 376.193 581C372.593 572.6 370.493 568.4 369.893 568.4C369.293 568.4 367.793 571.5 365.393 577.7C350.993 613.7 343.793 635 343.793 641.6V642.5C343.793 644.5 348.193 645.5 356.993 645.5H373.193Z" fill="black"/>
<path d="M527.138 565.7C509.938 575.7 501.337 597.2 501.337 630.2C501.337 639.8 502.238 648.8 504.038 657.2C505.837 665.6 508.837 672.9 513.037 679.1C517.438 685.1 523.038 689.9 529.838 693.5C536.838 696.9 545.537 698.6 555.938 698.6C565.938 698.6 578.438 694.3 593.438 685.7C597.438 683.3 600.738 682.1 603.338 682.1C606.938 682.1 608.737 684.5 608.737 689.3C608.737 691.7 607.237 695 604.237 699.2C601.237 703.4 597.138 707 591.938 710C579.537 717 565.537 720.5 549.938 720.5H546.037C533.438 720.5 522.438 718.2 513.037 713.6C503.637 709 495.838 702.8 489.638 695C483.438 687.2 478.738 678.2 475.538 668C472.538 657.6 471.038 646.7 471.038 635.3V631.1C471.038 617.9 472.738 605.6 476.138 594.2C479.538 582.8 484.737 572.9 491.737 564.5C498.737 556.1 507.538 549.5 518.138 544.7C528.737 539.7 541.237 537.2 555.638 537.2C579.038 537.2 594.038 542.7 600.638 553.7C603.237 558.3 604.538 562.4 604.538 566C604.538 573.4 601.938 577.1 596.737 577.1C594.938 577.1 591.237 575.2 585.638 571.4C579.838 567.4 574.037 564.4 568.237 562.4C562.438 560.4 555.938 559.4 548.737 559.4C541.537 559.4 534.338 561.5 527.138 565.7Z" fill="black"/>
<path d="M654.3 716.3C646.3 716.3 642.3 712.9 642.3 706.1C642.3 704.7 642.9 702.1 644.1 698.3L647.4 686.3C647.8 684.1 648.1 678.4 648.3 669.2C648.5 660 648.6 647.2 648.6 630.8C648.6 614.4 648.5 601.4 648.3 591.8C648.1 582.2 647.8 576 647.4 573.2C647 570.4 646.5 567.8 645.9 565.4C645.5 563 645 560.8 644.4 558.8C643.2 554.8 642.6 551.7 642.6 549.5C642.6 543.1 648.3 539.9 659.7 539.9C665.1 539.9 669.9 541.2 674.1 543.8C678.3 546.4 680.4 550 680.4 554.6C680.4 556.8 680.1 559.7 679.5 563.3L678.6 569.6C678.4 571 678.2 573.3 678 576.5C678 579.7 678 583.8 678 588.8C678 599 678.6 605.3 679.8 607.7C681 610.1 683.1 611.3 686.1 611.3C689.1 611.3 699.1 601 716.1 580.4C719.3 576.6 721.8 573.5 723.6 571.1C725.6 568.7 727.2 566.7 728.4 565.1C729.6 563.3 730.6 561.6 731.4 560C732.2 558.4 733.2 556.6 734.4 554.6C737.2 549.4 740.1 545.7 743.1 543.5C746.1 541.3 750.9 540.2 757.5 540.2C765.7 540.2 769.8 542.7 769.8 547.7C769.8 548.3 761.2 558.9 744 579.5C726.8 600.1 718.2 613.1 718.2 618.5C718.2 619.5 719.2 621.8 721.2 625.4C723.2 628.8 725.8 633 729 638C732.2 643 735.8 648.4 739.8 654.2C743.8 660 747.7 665.7 751.5 671.3C755.5 676.9 759.2 682.1 762.6 686.9C766.2 691.5 769 695.1 771 697.7C777.2 705.9 780.3 710.8 780.3 712.4C780.3 716 776.7 717.8 769.5 717.8H765C761.2 717.8 758.1 717.6 755.7 717.2C753.5 716.8 751.3 715.6 749.1 713.6C747.1 711.4 744.7 708.2 741.9 704C739.1 699.6 735.2 693.5 730.2 685.7C725.2 677.9 720.9 671.3 717.3 665.9C713.7 660.3 710.4 655.7 707.4 652.1C704.4 648.5 701.6 645.9 699 644.3C696.6 642.7 694.1 641.9 691.5 641.9C688.5 641.9 686 643.7 684 647.3C682.2 650.7 680.8 654.7 679.8 659.3C679 663.7 678.4 668.1 678 672.5C677.8 676.9 677.7 680.1 677.7 682.1L679.5 697.7C679.5 701.3 678.7 704.3 677.1 706.7C675.7 709.1 673.8 711 671.4 712.4C669.2 713.8 666.5 714.8 663.3 715.4C660.3 716 657.3 716.3 654.3 716.3Z" fill="black"/>
<path d="M952.608 697.1V699.5C952.608 705.9 950.608 710.3 946.608 712.7C942.608 714.9 937.808 716 932.208 716C929.608 716 927.608 715.9 926.208 715.7C924.808 715.3 923.608 714.4 922.608 713C921.608 711.6 920.608 709.4 919.608 706.4C918.808 703.4 917.708 699.2 916.308 693.8C914.908 688 913.408 683.2 911.808 679.4C910.208 675.6 908.208 672.6 905.808 670.4C903.608 668 900.708 666.3 897.108 665.3C893.708 664.3 889.208 663.8 883.608 663.8C873.008 663.8 864.808 664.2 859.008 665C853.208 665.8 848.808 667.3 845.808 669.5C842.808 671.5 840.608 674.4 839.208 678.2C837.808 681.8 836.208 686.5 834.408 692.3C833.008 696.5 832.008 700.7 831.408 704.9C831.008 708.9 830.208 711.8 829.008 713.6C828.008 715.2 825.208 716 820.608 716C816.008 716 812.308 714.1 809.508 710.3C806.908 706.5 805.608 702.3 805.608 697.7C805.608 692.9 807.208 688.3 810.408 683.9C812.008 681.7 813.308 679.6 814.308 677.6C815.508 675.4 816.508 673.4 817.308 671.6C818.108 669.8 820.008 664.4 823.008 655.4C826.008 646.2 830.408 633.4 836.208 617C841.808 600.6 846.408 587.4 850.008 577.4C853.808 567.2 856.708 560 858.708 555.8C862.508 547.8 865.808 542.7 868.608 540.5C871.408 538.3 874.908 537.2 879.108 537.2C883.308 537.2 887.108 538.7 890.508 541.7C894.108 544.7 897.908 550.5 901.908 559.1C901.908 559.1 915.308 596.9 942.108 672.5C943.508 676.5 945.608 680.8 948.408 685.4C951.208 690 952.608 693.9 952.608 697.1ZM880.908 645.5C894.108 645.5 900.708 644.3 900.708 641.9V641C900.708 640.6 900.508 639.8 900.108 638.6C899.908 637.4 899.608 635.7 899.208 633.5L897.108 626C897.108 625.8 896.908 625.1 896.508 623.9C896.308 623.5 895.108 618.3 892.908 608.3C890.508 598.7 887.508 589.6 883.908 581C880.308 572.6 878.208 568.4 877.608 568.4C877.008 568.4 875.508 571.5 873.108 577.7C858.708 613.7 851.508 635 851.508 641.6V642.5C851.508 644.5 855.908 645.5 864.708 645.5H880.908Z" fill="black"/>
</g>
<defs>
<linearGradient id="paint0_linear_30_2" x1="475.558" y1="260" x2="475.558" y2="497.072" gradientUnits="userSpaceOnUse">
<stop offset="0.134615" stop-color="#849685"/>
<stop offset="0.663462" stop-color="#5B6F5E"/>
</linearGradient>
<clipPath id="clip0_30_2">
<rect width="952.608" height="720.8" fill="white"/>
</clipPath>
</defs>
</svg>
