<svg width="1329" height="498" viewBox="0 0 1329 498" fill="none" xmlns="http://www.w3.org/2000/svg">
<path d="M31.0167 209.402C17.4135 201.77 17.3944 182.196 30.9826 174.537L174.399 93.7024C186.718 86.7592 201.787 86.836 214.034 93.9045L353.918 174.638C367.27 182.344 367.251 201.622 353.884 209.302L213.966 289.687C201.754 296.703 186.751 296.779 174.468 289.887L31.0167 209.402Z" fill="#C47B5A"/>
<path d="M63 260C64.3774 260 65.6897 260.279 66.8838 260.782C68.0964 260.992 69.2816 261.407 70.3867 262.027L173.665 319.973C185.948 326.864 200.951 326.788 213.163 319.771L313.449 262.155C316.849 260.202 321.032 260.206 324.428 262.166L353.115 278.724C360.5 282.986 363.792 290.788 363 298.21V391.863C363.794 399.299 360.488 407.117 353.081 411.372L213.163 491.756C200.951 498.772 185.948 498.848 173.665 491.957L30.2139 411.472C16.6109 403.839 16.5918 384.265 30.1797 376.606L42.7461 369.523C48.83 366.094 56.2619 366.087 62.3525 369.504L173.665 431.957C185.948 438.848 200.951 438.772 213.163 431.756L312 374.974V336.988L213.163 393.771C200.951 400.788 185.948 400.864 173.665 393.973L30.2139 313.487C23.1958 309.55 19.7934 302.434 20.0098 295.415C20.0041 295.277 20 295.139 20 295V270C20 264.477 24.4772 260 30 260H63Z" fill="url(#paint0_linear_33_23)"/>
<path d="M434.8 390.8C430.8 390.8 426.5 390.5 421.9 389.9C417.3 389.3 412.8 388.6 408.4 387.8C404.2 386.8 400.3 385.8 396.7 384.8C393.1 383.6 390.3 382.4 388.3 381.2C384.5 379 381.5 375.8 379.3 371.6C377.1 367.4 376 363.3 376 359.3C376 355.5 376.9 352.6 378.7 350.6C380.5 348.4 382.5 347.3 384.7 347.3C386.5 347.3 390.5 349.8 396.7 354.8C402.5 359.8 408.3 363.5 414.1 365.9C420.1 368.3 427.5 369.5 436.3 369.5C445.3 369.5 452.5 367.2 457.9 362.6C463.3 358 466 351.4 466 342.8C466 338.6 465.2 335 463.6 332C462.2 329 459.8 326.2 456.4 323.6C453 321 448.6 318.3 443.2 315.5C438 312.7 431.5 309.5 423.7 305.9C417.5 302.9 411.7 299.9 406.3 296.9C400.9 293.7 396.1 290.1 391.9 286.1C387.9 281.9 384.7 277.1 382.3 271.7C380.1 266.1 379 259.5 379 251.9C379 238.3 384.4 227.3 395.2 218.9C406 210.3 421.7 206 442.3 206C454.9 206 465.4 207.8 473.8 211.4C477.8 213.2 481.1 216.2 483.7 220.4C486.3 224.4 487.6 228.1 487.6 231.5C487.6 239.9 484.8 244.1 479.2 244.1C477.8 244.1 472.6 241.1 463.6 235.1C454.4 229.1 445.3 226.1 436.3 226.1C427.3 226.1 420 228.2 414.4 232.4C408.8 236.6 406 242.5 406 250.1C406 253.9 406.6 257.2 407.8 260C409.2 262.8 411.4 265.5 414.4 268.1C417.6 270.7 421.8 273.4 427 276.2C432.4 279 439.1 282.2 447.1 285.8C453.5 288.6 459.5 291.6 465.1 294.8C470.9 298 476 301.7 480.4 305.9C484.8 310.1 488.3 315.1 490.9 320.9C493.5 326.5 494.8 333.2 494.8 341C494.8 344.6 494.4 348.1 493.6 351.5C492.8 354.7 491.7 357.9 490.3 361.1C485.3 371.3 477.6 378.8 467.2 383.6C457 388.4 446.5 390.8 435.7 390.8H434.8Z" fill="black"/>
<path d="M656.263 223.1C656.263 231.1 653.763 235.1 648.763 235.1C646.563 235.1 642.963 234.4 637.963 233C632.963 231.6 627.763 230.9 622.363 230.9C610.763 230.9 603.963 235.2 601.963 243.8C600.363 251.4 599.563 272.7 599.563 307.7L598.963 332.9V345.8C598.963 351 599.263 354.9 599.863 357.5C600.663 359.9 601.763 363 603.163 366.8C604.363 370.4 604.963 373.3 604.963 375.5C604.963 379.9 603.063 383.3 599.263 385.7C595.663 387.9 590.663 389 584.263 389H580.963C576.363 389 572.163 387.9 568.363 385.7C564.763 383.3 562.963 380.4 562.963 377C562.963 373.2 563.463 370.1 564.463 367.7L566.563 362.6C567.363 361.2 568.363 358.4 569.563 354.2C570.563 350.2 571.063 343.3 571.063 333.5V329.9C571.263 328.5 571.363 327.3 571.363 326.3C571.363 325.1 571.363 323.8 571.363 322.4V315.2L571.963 286.1C571.963 262.1 571.163 247.2 569.563 241.4C567.763 234.6 562.463 231.2 553.663 231.2C548.663 231.2 542.663 232.4 535.663 234.8C528.463 237 524.163 238.1 522.763 238.1C518.563 238.1 516.463 233.7 516.463 224.9C516.463 216.1 520.263 211.2 527.863 210.2C538.063 208.4 562.763 207.5 601.963 207.5H637.663C644.463 207.5 649.263 208.8 652.063 211.4C654.863 214 656.263 217.9 656.263 223.1Z" fill="black"/>
<path d="M820.893 367.1V369.5C820.893 375.9 818.893 380.3 814.893 382.7C810.893 384.9 806.093 386 800.493 386C797.893 386 795.893 385.9 794.493 385.7C793.093 385.3 791.893 384.4 790.893 383C789.893 381.6 788.893 379.4 787.893 376.4C787.093 373.4 785.993 369.2 784.593 363.8C783.193 358 781.693 353.2 780.093 349.4C778.493 345.6 776.493 342.6 774.093 340.4C771.893 338 768.993 336.3 765.393 335.3C761.993 334.3 757.493 333.8 751.893 333.8C741.293 333.8 733.093 334.2 727.293 335C721.493 335.8 717.093 337.3 714.093 339.5C711.093 341.5 708.893 344.4 707.493 348.2C706.093 351.8 704.493 356.5 702.693 362.3C701.293 366.5 700.293 370.7 699.693 374.9C699.293 378.9 698.493 381.8 697.293 383.6C696.293 385.2 693.493 386 688.893 386C684.293 386 680.593 384.1 677.793 380.3C675.193 376.5 673.893 372.3 673.893 367.7C673.893 362.9 675.493 358.3 678.693 353.9C680.293 351.7 681.593 349.6 682.593 347.6C683.793 345.4 684.793 343.4 685.593 341.6C686.393 339.8 688.293 334.4 691.293 325.4C694.293 316.2 698.693 303.4 704.493 287C710.093 270.6 714.693 257.4 718.293 247.4C722.093 237.2 724.993 230 726.993 225.8C730.793 217.8 734.093 212.7 736.893 210.5C739.693 208.3 743.193 207.2 747.393 207.2C751.593 207.2 755.393 208.7 758.793 211.7C762.393 214.7 766.193 220.5 770.193 229.1C770.193 229.1 783.593 266.9 810.393 342.5C811.793 346.5 813.893 350.8 816.693 355.4C819.493 360 820.893 363.9 820.893 367.1ZM749.193 315.5C762.393 315.5 768.993 314.3 768.993 311.9V311C768.993 310.6 768.793 309.8 768.393 308.6C768.193 307.4 767.893 305.7 767.493 303.5L765.393 296C765.393 295.8 765.193 295.1 764.793 293.9C764.593 293.5 763.393 288.3 761.193 278.3C758.793 268.7 755.793 259.6 752.193 251C748.593 242.6 746.493 238.4 745.893 238.4C745.293 238.4 743.793 241.5 741.393 247.7C726.993 283.7 719.793 305 719.793 311.6V312.5C719.793 314.5 724.193 315.5 732.993 315.5H749.193Z" fill="black"/>
<path d="M903.138 235.7C885.938 245.7 877.337 267.2 877.337 300.2C877.337 309.8 878.238 318.8 880.038 327.2C881.838 335.6 884.837 342.9 889.037 349.1C893.437 355.1 899.038 359.9 905.838 363.5C912.838 366.9 921.537 368.6 931.938 368.6C941.937 368.6 954.437 364.3 969.438 355.7C973.438 353.3 976.738 352.1 979.338 352.1C982.938 352.1 984.737 354.5 984.737 359.3C984.737 361.7 983.237 365 980.237 369.2C977.237 373.4 973.137 377 967.938 380C955.537 387 941.538 390.5 925.938 390.5H922.037C909.437 390.5 898.437 388.2 889.037 383.6C879.637 379 871.838 372.8 865.638 365C859.438 357.2 854.738 348.2 851.538 338C848.538 327.6 847.038 316.7 847.038 305.3V301.1C847.038 287.9 848.738 275.6 852.138 264.2C855.538 252.8 860.737 242.9 867.737 234.5C874.737 226.1 883.538 219.5 894.138 214.7C904.738 209.7 917.238 207.2 931.638 207.2C955.038 207.2 970.038 212.7 976.638 223.7C979.238 228.3 980.538 232.4 980.538 236C980.538 243.4 977.937 247.1 972.737 247.1C970.937 247.1 967.238 245.2 961.638 241.4C955.838 237.4 950.037 234.4 944.237 232.4C938.437 230.4 931.937 229.4 924.737 229.4C917.537 229.4 910.338 231.5 903.138 235.7Z" fill="black"/>
<path d="M1030.3 386.3C1022.3 386.3 1018.3 382.9 1018.3 376.1C1018.3 374.7 1018.9 372.1 1020.1 368.3L1023.4 356.3C1023.8 354.1 1024.1 348.4 1024.3 339.2C1024.5 330 1024.6 317.2 1024.6 300.8C1024.6 284.4 1024.5 271.4 1024.3 261.8C1024.1 252.2 1023.8 246 1023.4 243.2C1023 240.4 1022.5 237.8 1021.9 235.4C1021.5 233 1021 230.8 1020.4 228.8C1019.2 224.8 1018.6 221.7 1018.6 219.5C1018.6 213.1 1024.3 209.9 1035.7 209.9C1041.1 209.9 1045.9 211.2 1050.1 213.8C1054.3 216.4 1056.4 220 1056.4 224.6C1056.4 226.8 1056.1 229.7 1055.5 233.3L1054.6 239.6C1054.4 241 1054.2 243.3 1054 246.5C1054 249.7 1054 253.8 1054 258.8C1054 269 1054.6 275.3 1055.8 277.7C1057 280.1 1059.1 281.3 1062.1 281.3C1065.1 281.3 1075.1 271 1092.1 250.4C1095.3 246.6 1097.8 243.5 1099.6 241.1C1101.6 238.7 1103.2 236.7 1104.4 235.1C1105.6 233.3 1106.6 231.6 1107.4 230C1108.2 228.4 1109.2 226.6 1110.4 224.6C1113.2 219.4 1116.1 215.7 1119.1 213.5C1122.1 211.3 1126.9 210.2 1133.5 210.2C1141.7 210.2 1145.8 212.7 1145.8 217.7C1145.8 218.3 1137.2 228.9 1120 249.5C1102.8 270.1 1094.2 283.1 1094.2 288.5C1094.2 289.5 1095.2 291.8 1097.2 295.4C1099.2 298.8 1101.8 303 1105 308C1108.2 313 1111.8 318.4 1115.8 324.2C1119.8 330 1123.7 335.7 1127.5 341.3C1131.5 346.9 1135.2 352.1 1138.6 356.9C1142.2 361.5 1145 365.1 1147 367.7C1153.2 375.9 1156.3 380.8 1156.3 382.4C1156.3 386 1152.7 387.8 1145.5 387.8H1141C1137.2 387.8 1134.1 387.6 1131.7 387.2C1129.5 386.8 1127.3 385.6 1125.1 383.6C1123.1 381.4 1120.7 378.2 1117.9 374C1115.1 369.6 1111.2 363.5 1106.2 355.7C1101.2 347.9 1096.9 341.3 1093.3 335.9C1089.7 330.3 1086.4 325.7 1083.4 322.1C1080.4 318.5 1077.6 315.9 1075 314.3C1072.6 312.7 1070.1 311.9 1067.5 311.9C1064.5 311.9 1062 313.7 1060 317.3C1058.2 320.7 1056.8 324.7 1055.8 329.3C1055 333.7 1054.4 338.1 1054 342.5C1053.8 346.9 1053.7 350.1 1053.7 352.1L1055.5 367.7C1055.5 371.3 1054.7 374.3 1053.1 376.7C1051.7 379.1 1049.8 381 1047.4 382.4C1045.2 383.8 1042.5 384.8 1039.3 385.4C1036.3 386 1033.3 386.3 1030.3 386.3Z" fill="black"/>
<path d="M1328.61 367.1V369.5C1328.61 375.9 1326.61 380.3 1322.61 382.7C1318.61 384.9 1313.81 386 1308.21 386C1305.61 386 1303.61 385.9 1302.21 385.7C1300.81 385.3 1299.61 384.4 1298.61 383C1297.61 381.6 1296.61 379.4 1295.61 376.4C1294.81 373.4 1293.71 369.2 1292.31 363.8C1290.91 358 1289.41 353.2 1287.81 349.4C1286.21 345.6 1284.21 342.6 1281.81 340.4C1279.61 338 1276.71 336.3 1273.11 335.3C1269.71 334.3 1265.21 333.8 1259.61 333.8C1249.01 333.8 1240.81 334.2 1235.01 335C1229.21 335.8 1224.81 337.3 1221.81 339.5C1218.81 341.5 1216.61 344.4 1215.21 348.2C1213.81 351.8 1212.21 356.5 1210.41 362.3C1209.01 366.5 1208.01 370.7 1207.41 374.9C1207.01 378.9 1206.21 381.8 1205.01 383.6C1204.01 385.2 1201.21 386 1196.61 386C1192.01 386 1188.31 384.1 1185.51 380.3C1182.91 376.5 1181.61 372.3 1181.61 367.7C1181.61 362.9 1183.21 358.3 1186.41 353.9C1188.01 351.7 1189.31 349.6 1190.31 347.6C1191.51 345.4 1192.51 343.4 1193.31 341.6C1194.11 339.8 1196.01 334.4 1199.01 325.4C1202.01 316.2 1206.41 303.4 1212.21 287C1217.81 270.6 1222.41 257.4 1226.01 247.4C1229.81 237.2 1232.71 230 1234.71 225.8C1238.51 217.8 1241.81 212.7 1244.61 210.5C1247.41 208.3 1250.91 207.2 1255.11 207.2C1259.31 207.2 1263.11 208.7 1266.51 211.7C1270.11 214.7 1273.91 220.5 1277.91 229.1C1277.91 229.1 1291.31 266.9 1318.11 342.5C1319.51 346.5 1321.61 350.8 1324.41 355.4C1327.21 360 1328.61 363.9 1328.61 367.1ZM1256.91 315.5C1270.11 315.5 1276.71 314.3 1276.71 311.9V311C1276.71 310.6 1276.51 309.8 1276.11 308.6C1275.91 307.4 1275.61 305.7 1275.21 303.5L1273.11 296C1273.11 295.8 1272.91 295.1 1272.51 293.9C1272.31 293.5 1271.11 288.3 1268.91 278.3C1266.51 268.7 1263.51 259.6 1259.91 251C1256.31 242.6 1254.21 238.4 1253.61 238.4C1253.01 238.4 1251.51 241.5 1249.11 247.7C1234.71 283.7 1227.51 305 1227.51 311.6V312.5C1227.51 314.5 1231.91 315.5 1240.71 315.5H1256.91Z" fill="black"/>
<defs>
<linearGradient id="paint0_linear_33_23" x1="191.558" y1="260" x2="191.558" y2="497.072" gradientUnits="userSpaceOnUse">
<stop offset="0.134615" stop-color="#849685"/>
<stop offset="0.663462" stop-color="#5B6F5E"/>
</linearGradient>
</defs>
</svg>
