<svg width="384" height="514" viewBox="0 0 384 514" fill="none" xmlns="http://www.w3.org/2000/svg">
<g filter="url(#filter0_d_27_123)">
<path d="M31.0167 209.402C17.4135 201.77 17.3944 182.196 30.9826 174.537L174.399 93.7024C186.718 86.7592 201.787 86.836 214.034 93.9045L353.918 174.638C367.27 182.344 367.251 201.622 353.884 209.302L213.966 289.687C201.754 296.703 186.751 296.779 174.468 289.887L31.0167 209.402Z" fill="#C47B5A"/>
</g>
<g filter="url(#filter1_d_27_123)">
<path d="M63 260C64.3774 260 65.6897 260.279 66.8838 260.782C68.0962 260.992 69.2817 261.406 70.3867 262.026L173.665 319.973C185.948 326.864 200.951 326.788 213.163 319.771L313.449 262.155C316.849 260.202 321.032 260.206 324.428 262.166L353.115 278.724C360.502 282.987 363.795 290.792 363 298.216V391.863C363.794 399.299 360.488 407.117 353.081 411.372L213.163 491.757C200.951 498.773 185.948 498.848 173.665 491.957L30.2139 411.472C16.6109 403.839 16.5917 384.265 30.1797 376.606L42.7461 369.523C48.83 366.094 56.2619 366.087 62.3525 369.504L173.665 431.957C185.948 438.848 200.951 438.773 213.163 431.757L312 374.974V336.988L213.163 393.771C200.951 400.788 185.948 400.864 173.665 393.973L30.2139 313.487C23.1959 309.55 19.7934 302.434 20.0098 295.415C20.0041 295.277 20 295.139 20 295V270C20 264.477 24.4772 260 30 260H63Z" fill="url(#paint0_linear_27_123)"/>
</g>
<defs>
<filter id="filter0_d_27_123" x="10.8029" y="84.5485" width="363.118" height="226.454" filterUnits="userSpaceOnUse" color-interpolation-filters="sRGB">
<feFlood flood-opacity="0" result="BackgroundImageFix"/>
<feColorMatrix in="SourceAlpha" type="matrix" values="0 0 0 0 0 0 0 0 0 0 0 0 0 0 0 0 0 0 127 0" result="hardAlpha"/>
<feOffset dy="6"/>
<feGaussianBlur stdDeviation="5"/>
<feComposite in2="hardAlpha" operator="out"/>
<feColorMatrix type="matrix" values="0 0 0 0 0 0 0 0 0 0 0 0 0 0 0 0 0 0 0.4 0"/>
<feBlend mode="normal" in2="BackgroundImageFix" result="effect1_dropShadow_27_123"/>
<feBlend mode="normal" in="SourceGraphic" in2="effect1_dropShadow_27_123" result="shape"/>
</filter>
<filter id="filter1_d_27_123" x="10" y="256" width="363.116" height="257.073" filterUnits="userSpaceOnUse" color-interpolation-filters="sRGB">
<feFlood flood-opacity="0" result="BackgroundImageFix"/>
<feColorMatrix in="SourceAlpha" type="matrix" values="0 0 0 0 0 0 0 0 0 0 0 0 0 0 0 0 0 0 127 0" result="hardAlpha"/>
<feOffset dy="6"/>
<feGaussianBlur stdDeviation="5"/>
<feComposite in2="hardAlpha" operator="out"/>
<feColorMatrix type="matrix" values="0 0 0 0 0 0 0 0 0 0 0 0 0 0 0 0 0 0 0.4 0"/>
<feBlend mode="normal" in2="BackgroundImageFix" result="effect1_dropShadow_27_123"/>
<feBlend mode="normal" in="SourceGraphic" in2="effect1_dropShadow_27_123" result="shape"/>
</filter>
<linearGradient id="paint0_linear_27_123" x1="191.558" y1="260" x2="191.558" y2="497.073" gradientUnits="userSpaceOnUse">
<stop offset="0.134615" stop-color="#849685"/>
<stop offset="0.663462" stop-color="#5B6F5E"/>
</linearGradient>
</defs>
</svg>
